<?xml version="1.0" encoding="UTF-8" standalone="no"?>
<!-- Generator: Adobe Illustrator 23.0.2, SVG Export Plug-In . SVG Version: 6.00 Build 0)  -->

<svg
   xmlns:dc="http://purl.org/dc/elements/1.1/"
   xmlns:cc="http://creativecommons.org/ns#"
   xmlns:rdf="http://www.w3.org/1999/02/22-rdf-syntax-ns#"
   xmlns:svg="http://www.w3.org/2000/svg"
   xmlns="http://www.w3.org/2000/svg"
   xmlns:sodipodi="http://sodipodi.sourceforge.net/DTD/sodipodi-0.dtd"
   xmlns:inkscape="http://www.inkscape.org/namespaces/inkscape"
   version="1.1"
   id="Capa_1"
   x="0px"
   y="0px"
   viewBox="0 0 805 805"
   xml:space="preserve"
   sodipodi:docname="dj-rumble.svg"
   inkscape:version="0.92.5 (2060ec1f9f, 2020-04-08)"
   width="805"
   height="805"><metadata
   id="metadata199"><rdf:RDF><cc:Work
       rdf:about=""><dc:format>image/svg+xml</dc:format><dc:type
         rdf:resource="http://purl.org/dc/dcmitype/StillImage" /><dc:title /></cc:Work></rdf:RDF></metadata><defs
   id="defs197" /><sodipodi:namedview
   pagecolor="#ffffff"
   bordercolor="#666666"
   borderopacity="1"
   objecttolerance="10"
   gridtolerance="10"
   guidetolerance="10"
   inkscape:pageopacity="0"
   inkscape:pageshadow="2"
   inkscape:window-width="1920"
   inkscape:window-height="1019"
   id="namedview195"
   showgrid="false"
   inkscape:zoom="0.59073842"
   inkscape:cx="-277.35017"
   inkscape:cy="222.88892"
   inkscape:window-x="1080"
   inkscape:window-y="398"
   inkscape:window-maximized="1"
   inkscape:current-layer="Capa_1" />
<style
   type="text/css"
   id="style2">
	.st0{fill:none;}
	.st1{fill:#414042;}
	.st2{fill:#C81E1E;}
	.st3{fill:#939598;}
	.st4{fill:#F44335;}
	.st5{fill:#FF9801;}
	.st6{fill:#F57C00;}
	.st7{fill:#F5F5F5;}
	.st8{font-family:'StreetRulerRegular';}
	.st9{font-size:101.3868px;}
</style>
<g
   id="g48"
   transform="translate(-57.952998,-5.1965412)">
	<path
   class="st0"
   d="m 516.9,202 -6.5,-0.4 c 0.3,1.4 0.5,2.8 0.8,4.2 z"
   id="path4"
   inkscape:connector-curvature="0"
   style="fill:none" />
	<path
   class="st0"
   d="m 517.7,257.8 -3.5,-0.8 c 0,0.6 0,1.1 -0.1,1.7 z"
   id="path6"
   inkscape:connector-curvature="0"
   style="fill:none" />
	<path
   class="st1"
   d="m 455,243.3 42,-28 c -0.8,-4.9 -1.7,-9.8 -2.8,-14.6 L 432.6,197 482.2,164.6 C 470.1,137.8 451.8,114.8 427.4,98.1 339,37.8 204,81.6 126.1,195.9 c -77.9,114.3 -69.5,255.9 19,316.3 88.4,60.3 223.4,16.5 301.3,-97.8 22.5,-33.1 37.8,-68.4 46,-103.4 l -45.2,-35.1 52.1,-13.3 c 0.1,-3 0.2,-5.9 0.3,-8.9 z M 132.2,210.6 c -3.1,-2.1 -3.3,-7 -0.6,-10.9 36.1,-53.1 87.1,-92.9 141.7,-110.5 4.1,-1.3 7.6,1.1 7.8,5.3 0.3,4.3 -2.8,8.8 -6.9,10.1 -50.7,16.3 -98.1,53.3 -131.6,102.6 -2.7,4 -7.3,5.5 -10.4,3.4 z m 27,7.9 c -2.7,3.9 -7.3,5.4 -10.4,3.4 -3.1,-2 -3.3,-7 -0.6,-10.9 32.2,-47.4 77.8,-82.9 126.5,-98.6 2.6,-0.9 5.2,-0.3 6.7,1.7 1.5,2 1.7,4.9 0.5,7.8 -1.2,2.8 -3.6,5.1 -6.2,5.9 -45,14.4 -86.9,47.1 -116.5,90.7 z m 54,193.7 C 167.4,381 163.1,307.8 203.4,248.6 243.8,189.5 313.5,166.9 359.3,198 c 45.8,31.2 50.1,104.4 9.8,163.6 -40.3,59.2 -110.2,81.8 -155.9,50.6 z m 76.9,80.4 c -0.3,-4.2 2.8,-8.7 6.8,-10 44.9,-14.4 86.8,-47.1 116.4,-90.8 2.7,-3.9 7.3,-5.5 10.4,-3.4 3,2.1 3.3,7 0.6,10.9 -32.2,47.4 -77.8,82.9 -126.5,98.6 -4,1.2 -7.5,-1.1 -7.7,-5.3 z m 150.1,-92.9 c 3,2.1 3.3,7 0.6,10.9 -35.6,52.4 -85.7,91.8 -139.5,109.7 -4.1,1.4 -7.6,-1 -7.9,-5.2 -0.3,-4.2 2.8,-8.8 6.8,-10.1 50,-16.7 96.5,-53.3 129.5,-101.9 2.8,-4 7.4,-5.5 10.5,-3.4 z"
   id="path8"
   inkscape:connector-curvature="0"
   style="fill:#414042" />
	<path
   class="st2"
   d="m 349.5,212.3 c -39.6,-27 -100.1,-7.4 -135.1,43.9 -35,51.3 -31.1,114.7 8.5,141.8 39.6,27.1 100.1,7.4 135.1,-43.9 34.9,-51.3 31.1,-114.7 -8.5,-141.8 z m -46.7,104.1 c -8.1,11.8 -22,16.4 -31.2,10.1 -9.1,-6.2 -10,-20.9 -2,-32.7 8,-11.8 22,-16.4 31.2,-10.1 9.2,6.3 10.1,20.9 2,32.7 z"
   id="path10"
   inkscape:connector-curvature="0"
   style="fill:#c81e1e" />
	
		<ellipse
   transform="matrix(0.5634,-0.8262,0.8262,0.5634,-127.131,369.7033)"
   class="st3"
   cx="286.20001"
   cy="305.10001"
   rx="8.6000004"
   ry="6.6999998"
   id="ellipse12"
   style="fill:#939598" />
	<path
   d="m 511.1,205.9 c -0.2,-1.4 -0.5,-2.8 -0.8,-4.2 l -8,-0.5 c 0.6,3.1 1.2,6.2 1.7,9.4 z"
   id="path14"
   inkscape:connector-curvature="0" />
	<path
   d="m 506.8,260.5 7.4,-1.9 c 0,-0.6 0,-1.1 0.1,-1.7 l -7.2,-1.7 c -0.2,1.8 -0.2,3.6 -0.3,5.3 z"
   id="path16"
   inkscape:connector-curvature="0" />
	<path
   d="m 498.5,315.6 c -8.8,34.7 -24.2,69.7 -46.6,102.5 C 371.2,536.4 231.7,581.7 140.2,519.3 48.7,456.9 39.9,310.5 120.5,192.2 201.1,73.9 340.8,28.6 432.3,91 c 25.4,17.3 44.4,41.2 56.9,69.1 l 6.9,-4.5 c -12.9,-29 -32.6,-53.7 -59,-71.7 C 342.5,19.5 198.4,66.3 115,188.4 31.7,310.6 40.8,462 135.3,526.5 229.8,591 374,544.1 457.4,421.9 c 22.2,-32.5 37.8,-67.1 47,-101.6 z"
   id="path18"
   inkscape:connector-curvature="0" />
	<path
   d="m 497,215.3 7.1,-4.7 c -0.5,-3.2 -1.1,-6.3 -1.7,-9.4 l -8.2,-0.5 c 1.1,4.8 2,9.7 2.8,14.6 z"
   id="path20"
   inkscape:connector-curvature="0" />
	<path
   d="m 499.6,253.6 c 0,2.9 -0.1,5.9 -0.3,8.9 l 7.5,-1.9 c 0.1,-1.8 0.1,-3.5 0.2,-5.2 z"
   id="path22"
   inkscape:connector-curvature="0" />
	<path
   d="M 446.4,414.3 C 368.4,528.6 233.5,572.4 145.1,512.1 56.7,451.8 48.2,310.2 126.1,195.8 204,81.4 339,37.8 427.4,98.1 c 24.4,16.7 42.8,39.6 54.8,66.5 l 7,-4.6 C 476.7,132.1 457.7,108.3 432.3,90.9 340.8,28.5 201.2,73.8 120.6,192.1 40,310.4 48.7,456.9 140.2,519.2 c 91.5,62.3 231.1,17.1 311.7,-101.2 22.4,-32.8 37.8,-67.8 46.6,-102.5 l -6.1,-4.7 c -8.2,35.1 -23.5,70.5 -46,103.5 z"
   id="path24"
   inkscape:connector-curvature="0" />
	<path
   d="m 274.2,104.6 c 4.1,-1.3 7.1,-5.8 6.9,-10.1 -0.3,-4.3 -3.8,-6.7 -7.8,-5.3 -54.6,17.6 -105.6,57.3 -141.7,110.5 -2.7,3.9 -2.4,8.8 0.6,10.9 3.1,2.1 7.7,0.6 10.4,-3.4 33.5,-49.3 80.9,-86.2 131.6,-102.6 z M 137.1,203.5 C 171.9,152.3 221.1,114 273.7,97 221.1,113.9 171.9,152.3 137.1,203.5 Z"
   id="path26"
   inkscape:connector-curvature="0" />
	<path
   d="m 429.8,403 c -33,48.6 -79.6,85.2 -129.5,101.9 -4.1,1.4 -7.1,5.9 -6.8,10.1 0.3,4.3 3.8,6.6 7.9,5.2 53.8,-17.9 103.9,-57.4 139.5,-109.7 2.7,-3.9 2.4,-8.8 -0.6,-10.9 -3,-2.1 -7.8,-0.5 -10.5,3.4 z M 300.9,512.6 C 352.8,495.2 401,457.2 435.4,406.8 401,457.3 352.7,495.3 300.9,512.6 Z"
   id="path28"
   inkscape:connector-curvature="0" />
	<path
   d="m 275.6,127.8 c 2.7,-0.8 5,-3.1 6.2,-5.9 1.2,-2.8 1,-5.8 -0.5,-7.8 -1.5,-2 -4,-2.6 -6.7,-1.7 -48.8,15.7 -94.3,51.2 -126.5,98.6 -2.7,3.9 -2.4,8.8 0.6,10.9 3.1,2.1 7.7,0.6 10.4,-3.4 29.7,-43.6 71.6,-76.3 116.5,-90.7 z m -121.9,87 c 30.9,-45.5 74.6,-79.6 121.4,-94.7 -46.8,15.1 -90.5,49.2 -121.4,94.7 z"
   id="path30"
   inkscape:connector-curvature="0" />
	<path
   d="m 418.8,395.5 c -31,45.5 -74.7,79.6 -121.4,94.7 v 0 c 46.7,-15.1 90.4,-49.2 121.4,-94.7 z"
   id="path32"
   inkscape:connector-curvature="0" />
	<path
   d="m 297.8,497.9 c 48.8,-15.7 94.3,-51.2 126.5,-98.6 2.7,-3.9 2.4,-8.8 -0.6,-10.9 -3,-2.1 -7.7,-0.6 -10.4,3.4 -29.6,43.6 -71.5,76.3 -116.4,90.8 -4,1.4 -7,5.9 -6.8,10 0.2,4.2 3.7,6.5 7.7,5.3 z m 121,-102.4 c -30.9,45.5 -74.6,79.6 -121.4,94.7 v 0 c 46.7,-15.1 90.4,-49.2 121.4,-94.7 z"
   id="path34"
   inkscape:connector-curvature="0" />
	<path
   d="m 369,361.6 c 40.3,-59.1 35.9,-132.4 -9.8,-163.6 -45.8,-31.1 -115.5,-8.5 -155.9,50.6 -40.3,59.1 -35.9,132.4 9.8,163.6 45.8,31.2 115.6,8.6 155.9,-50.6 z m -150.9,43.5 c -42.7,-29.1 -46.8,-97.5 -9.2,-152.7 37.6,-55.2 102.8,-76.3 145.5,-47.2 42.7,29.1 46.8,97.5 9.2,152.7 -37.7,55.2 -102.8,76.3 -145.5,47.2 z"
   id="path36"
   inkscape:connector-curvature="0" />
	<path
   d="m 354.4,205.2 c -42.7,-29.1 -107.8,-8 -145.5,47.2 -37.7,55.2 -33.5,123.6 9.2,152.7 42.7,29.1 107.8,8 145.5,-47.2 37.7,-55.2 33.5,-123.6 -9.2,-152.7 z M 222.9,397.9 c -39.7,-27 -43.4,-90.5 -8.5,-141.8 34.9,-51.3 95.4,-70.9 135.1,-43.9 39.6,27.1 43.4,90.5 8.5,141.8 -35,51.3 -95.4,71 -135.1,43.9 z"
   id="path38"
   inkscape:connector-curvature="0" />
	<path
   d="m 300.8,283.7 c -9.1,-6.2 -23.1,-1.7 -31.2,10.1 -8.1,11.8 -7.2,26.5 2,32.7 9.2,6.2 23.1,1.7 31.2,-10.1 8.1,-11.8 7.2,-26.4 -2,-32.7 z m -3.5,29 c -5.4,7.9 -14.7,10.9 -20.8,6.8 -6.1,-4.1 -6.7,-13.9 -1.3,-21.8 5.4,-7.9 14.7,-10.9 20.8,-6.8 6,4.1 6.6,13.9 1.3,21.8 z"
   id="path40"
   inkscape:connector-curvature="0" />
	<path
   d="m 296,290.9 c -6.1,-4.2 -15.4,-1.1 -20.8,6.8 -5.4,7.9 -4.8,17.6 1.3,21.8 6.1,4.2 15.4,1.1 20.8,-6.8 5.3,-7.9 4.7,-17.7 -1.3,-21.8 z m -4.3,18 c -2.7,3.9 -7.3,5.5 -10.4,3.4 -3,-2.1 -3.3,-7 -0.6,-10.9 2.7,-3.9 7.3,-5.5 10.4,-3.4 3,2.1 3.3,7 0.6,10.9 z"
   id="path42"
   inkscape:connector-curvature="0" />
	<path
   class="st4"
   d="m 269.6,293.8 c 3.5,-5.1 8.4,-9.8 13,-11 0.4,-0.1 -41.6,-55.9 -42.1,-55.6 -9.5,6.8 -18.5,17.7 -26.1,28.9 z"
   id="path44"
   inkscape:connector-curvature="0"
   style="fill:#f44335" />
	<path
   class="st4"
   d="m 302.4,317 c -3.6,5.1 -8.6,9.6 -13.2,10.7 -0.4,0.1 40.4,56.8 40.8,56.5 9.7,-6.6 18.9,-17.3 26.8,-28.4 z"
   id="path46"
   inkscape:connector-curvature="0"
   style="fill:#f44335" />
</g>
<g
   id="g56"
   transform="translate(-57.952998,-5.1965412)">
	<path
   class="st1"
   d="m 551.2,167.9 c -6.4,-11.3 -13.8,-21.6 -22,-31.1 l -38.1,45.4 z"
   id="path50"
   inkscape:connector-curvature="0"
   style="fill:#414042" />
	<path
   d="m 559.2,166 7.8,-1.9 c -7.6,-14.6 -16.7,-28.1 -27,-40 l -5.3,6.3 c 9.2,10.7 17.4,22.6 24.5,35.6 z"
   id="path52"
   inkscape:connector-curvature="0" />
	<path
   d="m 551.2,167.9 8,-1.9 c -7,-12.9 -15.3,-24.9 -24.6,-35.6 l -5.4,6.4 c 8.3,9.4 15.6,19.8 22,31.1 z"
   id="path54"
   inkscape:connector-curvature="0" />
</g>
<g
   id="g64"
   transform="translate(-57.952998,-5.1965412)">
	<path
   class="st1"
   d="m 529.6,251.7 c 2,-12.9 3,-25.7 2.8,-38.3 l -45.5,21.9 z"
   id="path58"
   inkscape:connector-curvature="0"
   style="fill:#414042" />
	<path
   d="m 536.6,254.4 6.9,2.7 c 3.2,-17.3 4.5,-34.4 4.1,-51 l -7.6,3.6 c 0.4,14.6 -0.8,29.6 -3.4,44.7 z"
   id="path60"
   inkscape:connector-curvature="0" />
	<path
   d="m 536.6,254.4 c 2.6,-15.1 3.7,-30.1 3.4,-44.7 l -7.7,3.7 c 0.1,12.5 -0.8,25.3 -2.8,38.3 z"
   id="path62"
   inkscape:connector-curvature="0" />
</g>
<g
   id="g87"
   transform="translate(-57.952998,-5.1965412)">
	<g
   id="Page-1_1_">
		<g
   transform="translate(-1,-1)"
   id="g84">
			<path
   id="Shape_1_"
   class="st4"
   d="m 769.8,532 79.3,64.2 c 7.3,5.9 8.4,16.6 2.5,23.9 L 749.7,746 c -5.9,7.3 -16.6,8.4 -23.9,2.5 l -79.3,-64.2 z"
   inkscape:connector-curvature="0"
   style="fill:#f44335" />
			<path
   class="st2"
   d="m 753.4,552.2 79.3,64.2 c 7.3,5.9 8.3,16.7 2.3,24.2 l 16.4,-20.2 c 6,-7.5 5,-18.3 -2.3,-24.2 L 769.8,532 Z"
   id="path67"
   inkscape:connector-curvature="0"
   style="fill:#c81e1e" />
			<path
   class="st4"
   d="m 598.4,330.1 c 9.6,8.8 18.2,18.5 25.6,29.1 88.3,122.3 -62.5,255.9 -168.3,226.1 l -0.1,-0.1 c -12.3,-3.3 -23.8,-9 -33.9,-16.7 -109,-82.2 -5.8,-196.2 -5.8,-196.2 0,0 91.7,-124.6 182.5,-42.2 z"
   id="path69"
   inkscape:connector-curvature="0"
   style="fill:#f44335" />
			<path
   class="st2"
   d="m 415.7,372.4 c 0,0 -3.4,3.8 -8.3,10.3 24,-27.5 99.6,-100.7 174.7,-32.6 9.6,8.8 18.2,18.5 25.6,29.1 39,54 31.4,110.3 1.5,153.6 42.3,-45.1 60,-110.8 14.6,-173.5 -7.5,-10.6 -16.1,-20.4 -25.6,-29.1 -90.8,-82.4 -182.5,42.2 -182.5,42.2 z"
   id="path71"
   inkscape:connector-curvature="0"
   style="fill:#c81e1e" />
			<path
   class="st2"
   d="m 679.1,305 c 92.8,75.2 90.6,227.1 90.6,227.1 L 646.2,684.6 C 576.1,671.9 499.2,619.2 455.8,585.5 561.7,615.3 712.5,481.7 624.1,359.4 616.6,348.8 608,339 598.5,330.3 c 7.7,-37.4 29.3,-66.8 80.6,-25.3 z"
   id="path73"
   inkscape:connector-curvature="0"
   style="fill:#c81e1e" />
			<path
   class="st5"
   d="m 715.4,653.2 80.8,-99.8 39.6,32.1 -80.8,99.8 c -3,3.7 -8.3,4.2 -12,1.3 l -26.4,-21.3 c -3.6,-3 -4.2,-8.4 -1.2,-12.1 z"
   id="path75"
   inkscape:connector-curvature="0"
   style="fill:#ff9801" />
			<path
   id="Rectangle-path_1_"
   class="st6"
   d="m 779.8,573.6 16.4,-20.2 39.6,32.1 -16.4,20.2 z"
   inkscape:connector-curvature="0"
   style="fill:#f57c00" />
			<path
   d="M 854.4,590.2 778,528.3 c -0.3,-25.6 -6.4,-158.7 -93.9,-229.5 -23.8,-19.3 -44.3,-26 -61.1,-20 -13.5,4.8 -23.4,17.3 -29.7,37.1 -17.5,-13.8 -38.9,-21.5 -61.2,-21.9 -66.3,-0.3 -118.4,67.2 -123,73.3 -4.5,5.1 -51.4,59.5 -45.5,121.6 3.2,33.4 21,62.5 52.9,86.6 10.7,8.1 22.7,14.1 35.5,17.9 49.8,38.4 122.5,86 190.3,99.1 l 78,63.2 c 11,8.9 27.1,7.2 36,-3.8 L 858.1,626.2 c 9,-11 7.3,-27.1 -3.7,-36 z M 824,587.4 749.1,679.9 722.7,658.5 797.6,566 Z M 426.7,561.8 c -27.9,-21 -43.5,-46.1 -46.2,-74.5 -4.6,-48.2 28.7,-93.5 39.1,-106.3 28.1,-34.7 68,-70.7 112.6,-70.4 30.6,0.2 59.1,18.2 84.8,53.8 92.3,127.8 -95.3,269.1 -190.3,197.4 z m 60.4,36.8 c 47,-0.3 101.7,-25.8 137.3,-69.8 36.2,-44.7 54.2,-109.8 7.4,-174.8 -6.9,-9.6 -14.6,-18.7 -23,-26.9 3.4,-13.7 9.7,-29 21.3,-33.2 10.6,-3.8 26.1,2 44.6,17 81.4,65.9 86.2,196.6 86.5,217.4 L 702.5,600.8 642.4,675 C 587.6,663.8 528.4,627.9 487.1,598.6 Z M 845,615.5 743.1,741.3 c -3,3.7 -8.3,4.2 -12,1.3 l -73.4,-59.4 43.1,-53.3 c 0,0 0,0 0,0 l 15.6,-19.2 v -0.1 0 l 54.5,-67.3 14,11.3 -75.5,93.2 c -5.9,7.3 -4.8,18.1 2.5,24 l 26.3,21.3 c 7.3,5.9 18.1,4.8 24,-2.5 l 74.8,-92.4 6.6,5.3 c 3.8,2.9 4.4,8.3 1.4,12 z"
   id="path78"
   inkscape:connector-curvature="0" />
			<path
   class="st7"
   d="m 430.4,531 c 0.5,-0.4 0.9,-0.8 1.3,-1.3 2.5,-3.1 2.5,-7.5 0,-10.7 -27.3,-34.2 -14.7,-71.7 0.6,-97 2.4,-4 1.1,-9.3 -2.9,-11.7 -4,-2.4 -9.3,-1.1 -11.7,2.9 -18.1,30 -32.7,74.6 0.7,116.5 3,3.6 8.4,4.2 12,1.3 z"
   id="path80"
   inkscape:connector-curvature="0"
   style="fill:#f5f5f5" />
			<path
   d="m 665,504.2 c -4.7,-0.3 -8.8,3.2 -9.1,7.9 l -3.2,46 -44.3,12.7 c -4.4,1.4 -6.9,6 -5.6,10.5 1.3,4.5 5.8,7 10.3,5.9 l 38.3,-11 -2.8,39.8 c -0.3,3.1 1.1,6.1 3.7,7.9 2.6,1.8 5.9,2 8.7,0.6 2.8,-1.4 4.6,-4.2 4.7,-7.3 l 3.2,-46 44.3,-12.7 c 3,-0.8 5.4,-3.1 6.2,-6.1 0.8,-3 -0.1,-6.2 -2.4,-8.3 -2.3,-2.1 -5.5,-2.9 -8.5,-1.9 l -38.3,11 2.8,-39.8 c 0.2,-4.8 -3.3,-8.9 -8,-9.2 z"
   id="path82"
   inkscape:connector-curvature="0" />
		</g>
	</g>
</g>
<g
   id="g95"
   transform="translate(-57.952998,-5.1965412)">
	<path
   class="st1"
   d="m 525.2,331.9 c 10.1,-13.4 18.8,-27.3 25.9,-41.5 L 498,281.5 Z"
   id="path89"
   inkscape:connector-curvature="0"
   style="fill:#414042" />
	<path
   d="m 566.2,292.9 -7.5,-1.3 c -8.1,16.2 -18.1,32 -29.8,47 l 3.6,6.7 c 13.4,-16.7 24.7,-34.3 33.7,-52.4 z"
   id="path91"
   inkscape:connector-curvature="0" />
	<path
   d="m 558.7,291.6 -7.6,-1.3 c -7.1,14.2 -15.8,28.1 -25.9,41.5 l 3.7,6.8 c 11.7,-15 21.7,-30.8 29.8,-47 z"
   id="path93"
   inkscape:connector-curvature="0" />
</g>












</svg>