<?xml version="1.0" encoding="iso-8859-1"?>
<!-- Generator: Adobe Illustrator 19.0.0, SVG Export Plug-In . SVG Version: 6.00 Build 0)  -->
<svg version="1.1" id="Layer_1" xmlns="http://www.w3.org/2000/svg" xmlns:xlink="http://www.w3.org/1999/xlink" x="0px" y="0px"
	 viewBox="0 0 512 512" style="enable-background:new 0 0 512 512;" xml:space="preserve">
<path style="fill:#AF6518;" d="M386.035,81.048l-33.398,33.398l-0.026,0.027c-9.202,9.202-22.44,11.896-34.015,8.097
	c-0.221-0.073-0.444-0.138-0.663-0.215c-30.279-9.817-64.841-2.727-88.895,21.326l-18.869,18.869L72.328,300.394l-57.234,57.232
	c-9.987,9.988-9.987,26.183,0.001,36.17l103.107,103.107c9.986,9.989,26.181,9.989,36.169,0.002l57.233-57.235l137.843-137.841
	l18.868-18.869c24.056-24.054,31.143-58.618,21.324-88.899c-0.068-0.199-0.128-0.399-0.194-0.598
	c-3.826-11.591-1.137-24.858,8.079-34.076l0.027-0.026l33.398-33.397L386.035,81.048z"/>
<g>
	
		<rect x="396.845" y="54.944" transform="matrix(-0.7071 -0.7071 0.7071 -0.7071 672.7112 445.4236)" style="fill:#B7364A;" width="63.521" height="56.89"/>
	
		<rect x="415.181" y="37.586" transform="matrix(-0.7071 -0.7071 0.7071 -0.7071 746.9605 414.6725)" style="fill:#B7364A;" width="88.362" height="30.1"/>
	<polyline style="fill:#B7364A;" points="241.139,193.522 210.168,162.552 72.328,300.394 211.604,439.671 349.447,301.831 
		257.712,210.097 	"/>
</g>
<rect x="174.9" y="265.129" style="fill:#60A771;" width="71.972" height="71.972"/>
<g>
	<path style="fill:#491E17;" d="M512,73.236L438.763,0l-32.039,32.038l8.785,8.785l-29.474,29.471l0,0l-6.488,6.488l-4.266,4.266
		l0,0L347.26,109.07l-0.072,0.073c-4.855,4.831-11.298,7.491-18.152,7.491c-2.751,0-5.465-0.433-8.045-1.281l-0.711-0.231
		c-9.506-3.081-19.407-4.644-29.427-4.644c-25.384,0-49.247,9.883-67.191,27.826L9.716,352.251
		C3.45,358.518-0.001,366.849,0,375.714c0,8.863,3.451,17.195,9.717,23.462l103.107,103.105c6.266,6.268,14.597,9.719,23.462,9.719
		c0,0,0.001,0,0.002,0c8.862,0,17.193-3.45,23.461-9.717L308.533,353.5l51.669-51.669h-0.001l13.492-13.492
		c25.391-25.389,34.274-62.414,23.181-96.622l-0.207-0.636c-3.066-9.289-0.695-19.349,6.188-26.269l28.097-28.095l0,0l40.226-40.226
		l8.785,8.785L512,73.236z M438.763,21.508l51.728,51.729l-10.53,10.531l-17.035-17.035l-34.694-34.695L438.763,21.508z
		 M148.995,491.528c-3.395,3.395-7.908,5.262-12.707,5.262c-4.801,0-9.315-1.87-12.707-5.264L20.471,388.42
		c-3.394-3.394-5.262-7.907-5.262-12.707c0-4.8,1.869-9.314,5.262-12.707l51.857-51.857l128.524,128.524L148.995,491.528z
		 M392.147,154.011c-11.004,11.008-14.806,27.039-9.915,41.857l0.052,0.159c0.045,0.142,0.09,0.283,0.138,0.425
		c9.298,28.731,1.836,59.815-19.482,81.132l-13.491,13.492l-86.358-86.357l-10.754,10.755l86.357,86.356l-43.441,43.44
		l-83.648,83.647L83.081,300.394l127.087-127.088l25.592,25.593l10.755-10.755l-25.592-25.592l13.492-13.492
		c15.071-15.072,35.115-23.373,56.437-23.373c8.401,0,16.701,1.306,24.669,3.881c0.174,0.06,0.351,0.116,0.526,0.171l0.178,0.057
		c4.137,1.358,8.447,2.046,12.811,2.046c10.938,0,21.22-4.258,28.953-11.991l28.047-28.05l34.161,34.161L392.147,154.011z
		 M430.951,115.209L396.79,81.048l29.473-29.47l25.917,25.917l8.244,8.244L430.951,115.209z"/>
	<path style="fill:#491E17;" d="M167.297,344.702h87.181v-87.181h-87.181V344.702z M182.506,272.729h56.763v56.763h-56.763V272.729z
		"/>
</g>
<g>
</g>
<g>
</g>
<g>
</g>
<g>
</g>
<g>
</g>
<g>
</g>
<g>
</g>
<g>
</g>
<g>
</g>
<g>
</g>
<g>
</g>
<g>
</g>
<g>
</g>
<g>
</g>
<g>
</g>
</svg>
