<?xml version="1.0" encoding="iso-8859-1"?>
<!-- Generator: Adobe Illustrator 19.0.0, SVG Export Plug-In . SVG Version: 6.00 Build 0)  -->
<svg version="1.1" id="Layer_1" xmlns="http://www.w3.org/2000/svg" xmlns:xlink="http://www.w3.org/1999/xlink" x="0px" y="0px"
	 viewBox="0 0 422.981 422.981" style="enable-background:new 0 0 422.981 422.981;" xml:space="preserve">
<g>
	<path style="fill:#B7ED62;" d="M302.234,184.3v218.882c0,10.934-8.864,19.798-19.798,19.798H140.542
		c-10.934,0-19.798-8.864-19.798-19.798V184.3c0-7.84,2.07-15.4,5.83-21.99c3.75-6.59,9.19-12.22,15.94-16.22
		c11.82-7,19.73-19.07,21.43-32.7l9.46-75.69l1.34-10.76h73.5l1.34,10.76l9.46,75.69c0.85,6.81,3.25,13.24,6.92,18.84
		c3.66,5.59,8.6,10.36,14.5,13.86C293.965,154.09,302.234,168.61,302.234,184.3"/>
	<path style="fill:#FFDE55;" d="M234.229,0.001h-45.473c-11.881,0-21.512,9.631-21.512,21.511v5.429h88.496v-5.429
		C255.74,9.632,246.109,0.001,234.229,0.001"/>
	<path style="fill:#E9E9E9;" d="M177.908,2.932c-6.38,3.732-10.664,10.655-10.664,18.578v0.002
		C167.245,13.588,171.529,6.665,177.908,2.932 M211.425,0h-22.66c-0.906,0-1.8,0.056-2.677,0.165
		c0.874-0.108,1.765-0.164,2.668-0.164h22.488C211.304,0,211.364,0,211.425,0"/>
	<path style="fill:#E9CD57;" d="M211.244,0.001h-22.488c-0.904,0-1.794,0.056-2.668,0.164c-2.954,0.366-5.723,1.33-8.18,2.768
		c-6.379,3.732-10.664,10.656-10.664,18.58v5.427h7.5h0.002h8.9h6.267v-5.43C189.915,9.69,199.447,0.098,211.244,0.001"/>
	<path style="fill:#FFFFFF;" d="M251.743,54.974l7.301,58.415c0.85,6.81,3.25,13.24,6.92,18.84c3.66,5.59,8.6,10.36,14.5,13.86
		c13.5,8,21.77,22.52,21.77,38.21v218.882c0,10.934-8.864,19.798-19.798,19.798h0.003c10.934,0,19.798-8.864,19.798-19.798V184.3
		c0-7.84-2.07-15.4-5.82-21.99c-3.76-6.59-9.2-12.22-15.95-16.22c-11.81-7-19.72-19.07-21.42-32.7L251.743,54.974"/>
	<path style="fill:#D0F398;" d="M249.583,37.7h-9.226l7.171,75.69l0.012,0.13c0.79,8.25-4.204,15.997-12.079,18.579
		c-14.715,4.824-30.67,6.934-30.67,6.934c20.551,0,36.857,2.3,47.068,4.273c10.544,2.038,19.594,8.963,23.9,18.801l0.089,0.203
		c2.84,6.59,4.41,14.15,4.41,21.99v217.8c0,11.53-7.08,20.88-15.82,20.88h17.998c10.934,0,19.798-8.864,19.798-19.798V184.3
		c0-15.69-8.27-30.21-21.77-38.21c-5.9-3.5-10.84-8.27-14.5-13.86c-3.67-5.6-6.07-12.03-6.92-18.84l-7.301-58.415L249.583,37.7"/>
	<path style="fill:#E9F9CE;" d="M211.489,195.7c-19.332,0-36.294,16.983-45.852,42.521v95.958
		c9.558,25.538,26.52,42.521,45.852,42.521c29.86,0,54.067-40.518,54.067-90.5S241.35,195.7,211.489,195.7"/>
	<path style="fill:#E9E9E9;" d="M131.201,155.672c-1.746,2.071-3.296,4.294-4.634,6.638c-1.38,2.425-2.533,4.983-3.439,7.637
		c0.907-2.654,2.062-5.211,3.446-7.637C127.908,159.966,129.456,157.743,131.201,155.672 M174.744,26.941L174.744,26.941
		l-0.609,4.892l-10.198,81.557c-1.557,12.485-8.324,23.66-18.526,30.83c10.21-7.17,16.977-18.345,18.534-30.83l9.46-75.69
		L174.744,26.941"/>
	<path style="fill:#ACDA63;" d="M239.338,26.941h-64.594l-1.34,10.759l-9.46,75.69c-1.557,12.485-8.324,23.66-18.534,30.83
		c-0.936,0.658-1.901,1.282-2.894,1.87c-4.349,2.577-8.154,5.831-11.316,9.582c-1.745,2.071-3.292,4.294-4.626,6.638
		c-1.384,2.425-2.539,4.983-3.446,7.637c-1.555,4.557-2.381,9.399-2.381,14.354v218.882c0,10.934,8.864,19.798,19.798,19.798h40.913
		c-8.74,0-15.82-9.35-15.82-20.88V334.18c-5.206-13.909-8.215-30.356-8.215-47.979c0-17.624,3.009-34.07,8.215-47.979V184.3
		c0-7.84,1.57-15.4,4.41-21.99c2.85-6.59,6.97-12.22,12.08-16.22c8.96-7,14.95-19.07,16.24-32.7l5.035-53.147
		c1.211-12.78,11.942-22.543,24.78-22.543h12.174L239.338,26.941 M248.244,26.941h-0.007l1.345,10.759h0.001L248.244,26.941"/>
	<polyline style="fill:#E9CD57;" points="248.244,26.94 189.915,26.94 174.744,26.94 174.744,26.941 239.338,26.941 239.338,26.94 
		248.238,26.94 248.244,26.941 248.244,26.94 	"/>
	<polyline style="fill:#D7BE59;" points="189.915,26.94 183.647,26.94 174.747,26.94 174.744,26.94 189.915,26.94 	"/>
	<polyline style="fill:#C1DF91;" points="248.238,26.941 239.338,26.941 240.357,37.7 249.583,37.7 248.238,26.94 	"/>
	<polyline style="fill:#E9D789;" points="248.238,26.94 239.338,26.94 248.238,26.941 248.238,26.94 	"/>
	<path style="fill:#D7E4BF;" d="M165.638,238.221c-5.206,13.909-8.215,30.355-8.215,47.979s3.009,34.07,8.215,47.979V238.221"/>
</g>
<g>
</g>
<g>
</g>
<g>
</g>
<g>
</g>
<g>
</g>
<g>
</g>
<g>
</g>
<g>
</g>
<g>
</g>
<g>
</g>
<g>
</g>
<g>
</g>
<g>
</g>
<g>
</g>
<g>
</g>
</svg>
