<?xml version="1.0" encoding="iso-8859-1"?>
<!-- Generator: Adobe Illustrator 19.0.0, SVG Export Plug-In . SVG Version: 6.00 Build 0)  -->
<svg version="1.1" id="Layer_1" xmlns="http://www.w3.org/2000/svg" xmlns:xlink="http://www.w3.org/1999/xlink" x="0px" y="0px"
	 viewBox="0 0 496.158 496.158" style="enable-background:new 0 0 496.158 496.158;" xml:space="preserve">

<g>
	<path style="fill:#835A00;" d="M381.561,260.676c0,0-73.093,13.473-134.542,13.473c-61.441,0-132.415-13.473-132.415-13.473
		c-19.306,0-34.959,14.517-34.959,60.638c0,60.634,84.745,63.82,169.493,63.82c84.752,0,167.382-3.186,167.382-63.82
		C416.52,275.192,400.859,260.676,381.561,260.676z"/>
	<path style="fill:#835A00;" d="M366.019,195.6c0,0-64.582-20.679-118.874-20.679c-54.295,0-117.003,20.679-117.003,20.679
		c-18.174,9.64-30.889,38.287-30.889,79.037c0,32.339,74.879,43.118,149.767,43.118c74.879,0,147.892-10.779,147.892-43.118
		C396.912,233.887,388.206,206.586,366.019,195.6z"/>
	<path style="fill:#835A00;" d="M247.391,81.945c0,0,17.52,17.52,13.48,30.992c-4.79,15.966-35.468,18.001-45.819,18.866
		c-48.508,4.04-56.472,24.115-56.472,56.595c0,42.705,30.56,40.421,90.245,40.421c59.689,0,88.761,2.284,88.761-40.421
		C337.586,113.052,313.418,90.031,247.391,81.945z"/>
</g>
<g>
	<path style="fill:#724C00;" d="M378.1,234.212c0,0-7.039-23.98-21.556-10.779c-29.646,26.949-70.071,37.729-142.835,53.897
		C213.709,277.33,380.792,293.504,378.1,234.212z"/>
	<path style="fill:#724C00;" d="M399.658,325.843c0,0-7.038-23.984-21.559-10.784c-29.643,26.949-70.067,37.729-142.831,53.902
		C235.268,368.961,402.351,385.134,399.658,325.843z"/>
</g>
<g>
	<path style="fill:#996304;" d="M93.918,290.807c-7.762,29.872,21.417,36.382,32.2,24.929
		c12.173-12.929,12.127-11.453,137.732-9.047C263.85,306.689,99.166,270.595,93.918,290.807z"/>
	<path style="fill:#996304;" d="M122.428,214.451c-2.081,26.513,23.655,27.634,31.076,16.296
		c8.373-12.803,8.557-11.545,115.473-28.437C268.976,202.31,123.831,196.518,122.428,214.451z"/>
</g>
<path style="fill:#724C00;" d="M322.862,151.985c0,0-4.731-16.116-14.489-7.245c-19.93,18.117-47.101,25.362-96.014,36.233
	C212.359,180.973,324.672,191.844,322.862,151.985z"/>
<path style="fill:#996304;" d="M179.488,150.711c0.772,17.317,17.513,15.982,21.402,8.052c4.396-8.951,4.617-8.147,72.42-27.626
	C273.31,131.137,178.961,138.998,179.488,150.711z"/>
<g>
</g>
<g>
</g>
<g>
</g>
<g>
</g>
<g>
</g>
<g>
</g>
<g>
</g>
<g>
</g>
<g>
</g>
<g>
</g>
<g>
</g>
<g>
</g>
<g>
</g>
<g>
</g>
<g>
</g>
</svg>
