<?xml version="1.0" encoding="UTF-8"?>
<svg xmlns="http://www.w3.org/2000/svg" xmlns:xlink="http://www.w3.org/1999/xlink" width="375pt" height="375pt" viewBox="0 0 375 375" version="1.1">
<g id="surface1">
<path style=" stroke:none;fill-rule:nonzero;fill:rgb(53.333333%,75.294118%,34.117647%);fill-opacity:1;" d="M 293.664062 61.375 C 275.070312 49.457031 240.15625 32.855469 206.609375 48.195312 C 203.382812 49.675781 199.703125 47.347656 199.703125 43.792969 L 199.703125 12.960938 C 199.710938 5.832031 194.867188 0 188.953125 0 L 172.824219 0 C 166.90625 0 162.070312 5.832031 162.070312 12.960938 L 162.070312 45.617188 C 162.070312 48.703125 159.277344 51.039062 156.25 50.417969 C 142.628906 47.609375 107.261719 43.238281 73.445312 63.441406 C 68.8125 66.207031 71.496094 73.460938 76.808594 72.492188 C 92.550781 69.609375 113.28125 67.628906 127.285156 73.15625 C 130.953125 74.601562 131.484375 79.625 128.183594 81.785156 C 118.234375 88.28125 99.882812 103.210938 87.859375 130.671875 C 85.8125 135.34375 91.558594 139.53125 95.5 136.289062 C 110.863281 123.632812 136.136719 106.488281 157.570312 109.25 C 160.097656 109.578125 162.011719 111.640625 161.976562 114.183594 C 161.757812 128.566406 161.9375 177.433594 173.820312 195.925781 C 175.691406 198.84375 179.886719 198.988281 181.921875 196.183594 C 189.492188 185.78125 205.898438 158.210938 205.226562 115.152344 C 205.179688 112.320312 207.453125 110.019531 210.28125 110.117188 C 221.09375 110.464844 246.621094 113.519531 266.867188 133.289062 C 270.183594 136.535156 275.675781 133.738281 275.09375 129.132812 C 273.503906 116.542969 266.574219 97.503906 241.492188 82.738281 C 237.683594 80.496094 238.328125 74.792969 242.613281 73.738281 C 251.277344 71.613281 266.214844 69.585938 290.828125 70.398438 C 295.824219 70.554688 297.863281 64.066406 293.664062 61.375 Z M 293.664062 61.375 "/>
<path style=" stroke:none;fill-rule:nonzero;fill:rgb(81.960784%,21.960784%,20.392157%);fill-opacity:1;" d="M 299.308594 72.492188 C 298.632812 72.019531 297.851562 71.722656 297.03125 71.621094 C 294.128906 71.265625 291.21875 70.929688 288.3125 70.539062 C 287.277344 70.4375 286.234375 70.355469 285.203125 70.257812 C 264.054688 69.90625 250.785156 71.75 242.78125 73.695312 C 238.4375 74.753906 237.652344 80.453125 241.511719 82.722656 C 266.597656 97.488281 273.519531 116.527344 275.109375 129.109375 C 275.691406 133.714844 270.199219 136.511719 266.878906 133.269531 C 246.636719 113.503906 221.105469 110.449219 210.296875 110.09375 C 207.464844 110 205.1875 112.296875 205.238281 115.128906 C 205.90625 158.1875 189.507812 185.761719 181.9375 196.160156 C 179.894531 198.96875 175.703125 198.824219 173.832031 195.90625 C 161.953125 177.410156 161.773438 128.542969 161.988281 114.167969 C 162.027344 111.625 160.109375 109.554688 157.585938 109.230469 C 136.148438 106.457031 110.878906 123.609375 95.515625 136.265625 C 91.574219 139.507812 85.828125 135.320312 87.871094 130.648438 C 99.882812 103.226562 118.207031 88.304688 128.164062 81.792969 C 131.476562 79.625 130.925781 74.578125 127.234375 73.15625 C 124.539062 72.121094 121.601562 71.351562 118.503906 70.808594 C 117.953125 70.703125 117.363281 70.695312 116.804688 70.777344 C 99.210938 73.171875 81.925781 76.519531 65.144531 81.015625 C 64.40625 81.214844 63.71875 81.566406 63.132812 82.0625 C 26.101562 112.871094 2.851562 157.230469 2.851562 206.550781 C 2.851562 299.585938 85.519531 375 187.496094 375 C 289.472656 375 372.140625 299.585938 372.140625 206.550781 C 372.148438 151.859375 343.570312 103.257812 299.308594 72.492188 Z M 299.308594 72.492188 "/>
<path style=" stroke:none;fill-rule:nonzero;fill:rgb(92.941176%,44.313725%,38.039216%);fill-opacity:1;" d="M 42.023438 251.332031 C 39.539062 251.332031 37.121094 250.058594 35.773438 247.773438 C 30.347656 238.613281 26.789062 228.484375 25.199219 217.691406 C 24.621094 213.71875 27.363281 210.03125 31.324219 209.453125 C 35.363281 208.832031 38.984375 211.613281 39.5625 215.578125 C 40.851562 224.382812 43.863281 232.957031 48.261719 240.378906 C 50.300781 243.828125 49.171875 248.285156 45.714844 250.324219 C 44.554688 251.003906 43.273438 251.332031 42.023438 251.332031 Z M 42.023438 251.332031 "/>
<path style=" stroke:none;fill-rule:nonzero;fill:rgb(92.941176%,44.313725%,38.039216%);fill-opacity:1;" d="M 33.292969 193.582031 C 33.125 193.582031 32.953125 193.574219 32.785156 193.5625 C 28.78125 193.285156 25.765625 189.816406 26.042969 185.828125 C 26.726562 176.199219 28.699219 166.84375 31.929688 158.007812 C 33.300781 154.242188 37.449219 152.324219 41.238281 153.679688 C 45.003906 155.054688 46.933594 159.226562 45.558594 162.988281 C 42.800781 170.542969 41.105469 178.5625 40.527344 186.828125 C 40.257812 190.660156 37.070312 193.582031 33.292969 193.582031 Z M 33.292969 193.582031 "/>
</g>
</svg>
